<?xml version="1.0" encoding="UTF-8" standalone="no"?>
<!-- Created with Inkscape (http://www.inkscape.org/) -->

<svg
   width="150mm"
   height="50mm"
   viewBox="0 0 150 50"
   version="1.1"
   id="svg1"
   inkscape:version="1.4.3 (1:1.4.3+202512261035+0d15f75042)"
   sodipodi:docname="TeamEquipeNB-White.svg"
   xmlns:inkscape="http://www.inkscape.org/namespaces/inkscape"
   xmlns:sodipodi="http://sodipodi.sourceforge.net/DTD/sodipodi-0.dtd"
   xmlns="http://www.w3.org/2000/svg"
   xmlns:svg="http://www.w3.org/2000/svg">
  <sodipodi:namedview
     id="namedview1"
     pagecolor="#ffffff"
     bordercolor="#000000"
     borderopacity="0.25"
     inkscape:showpageshadow="2"
     inkscape:pageopacity="0.0"
     inkscape:pagecheckerboard="0"
     inkscape:deskcolor="#d1d1d1"
     inkscape:document-units="mm"
     inkscape:zoom="1.150982"
     inkscape:cx="262.38464"
     inkscape:cy="188.53466"
     inkscape:window-width="1503"
     inkscape:window-height="893"
     inkscape:window-x="0"
     inkscape:window-y="0"
     inkscape:window-maximized="1"
     inkscape:current-layer="layer1" />
  <defs
     id="defs1" />
  <g
     inkscape:label="Layer 1"
     inkscape:groupmode="layer"
     id="layer1"
     transform="translate(-23.469298,-13.541273)">
    <path
       d="m 40.697704,34.705356 -3.312976,3.387907 h 2.611727 l 4.089156,-3.387907 z m -7.345805,4.705656 -4.418335,15.692065 h 9.904822 l 1.055232,-3.787882 h -5.43481 l 0.632003,-2.258777 h 5.293734 l 1.055232,-3.787366 h -5.269962 l 0.573608,-2.070675 h 5.434294 l 1.079004,-3.787365 z"
       style="font-style:italic;font-weight:900;font-stretch:condensed;font-family:'Proxima Nova Condensed';-inkscape-font-specification:'Proxima Nova Condensed, Heavy Italic Condensed';fill:#ffffff"
       id="path6" />
    <path
       style="font-style:italic;font-weight:900;font-stretch:condensed;font-family:'Proxima Nova Condensed';-inkscape-font-specification:'Proxima Nova Condensed, Heavy Italic Condensed';fill:#ffffff"
       d="m 95.927924,39.411012 -4.418335,15.692065 h 9.904821 l 1.05472,-3.787882 h -5.434297 l 0.632003,-2.258777 h 5.293734 l 1.05472,-3.787366 h -5.269967 l 0.573609,-2.070675 h 5.434808 l 1.07849,-3.787365 z"
       id="path14" />
    <path
       style="font-style:italic;font-weight:900;font-stretch:condensed;font-family:'Proxima Nova Condensed';-inkscape-font-specification:'Proxima Nova Condensed, Heavy Italic Condensed';fill:#ffffff"
       d="m 82.264676,39.411012 -4.418335,15.692065 h 4.446757 l 1.41335,-5.034835 h 2.329057 c 1.521367,0 2.794922,-0.305576 3.820439,-0.917256 1.04216,-0.627367 1.819166,-1.404201 2.330607,-2.329574 0.528082,-0.941047 0.822198,-1.905257 0.882633,-2.893363 0.05084,-0.83126 -0.09866,-1.591925 -0.448551,-2.282032 -0.349896,-0.690106 -0.873473,-1.231566 -1.570964,-1.623673 -0.680848,-0.407787 -1.484304,-0.611332 -2.409672,-0.611332 z m 3.391007,3.787365 h 1.599902 c 0.392105,0 0.691471,0.110116 0.89762,0.329696 0.207109,0.203893 0.298975,0.493805 0.275952,0.870231 -0.0307,0.501894 -0.221068,0.92567 -0.571541,1.270724 -0.350472,0.345046 -0.800325,0.517281 -1.349272,0.517281 h -1.693953 z"
       id="path13" />
    <path
       style="font-style:italic;font-weight:900;font-stretch:condensed;font-family:'Proxima Nova Condensed';-inkscape-font-specification:'Proxima Nova Condensed, Heavy Italic Condensed';fill:#ffffff"
       d="m 75.517801,39.411012 -4.417819,15.692065 h 4.446241 l 4.418335,-15.692065 z"
       id="path12" />
    <path
       style="font-style:italic;font-weight:900;font-stretch:condensed;font-family:'Proxima Nova Condensed';-inkscape-font-specification:'Proxima Nova Condensed, Heavy Italic Condensed';fill:#ffffff"
       d="m 60.396243,39.411012 -2.671155,9.434049 c -0.137608,0.45484 -0.222075,0.940729 -0.253731,1.458309 -0.06043,0.9881 0.121149,1.866455 0.54467,2.634981 0.439204,0.768527 1.092431,1.372616 1.95957,1.811776 0.868098,0.423473 1.905822,0.635104 3.113505,0.635104 1.897789,0 3.451479,-0.525292 4.660697,-1.576132 1.224904,-1.050846 2.107986,-2.540858 2.649451,-4.470011 l 2.818433,-9.928076 h -4.493266 l -2.823084,9.998356 c -0.383376,1.395893 -1.139849,2.093929 -2.269112,2.093929 -0.580315,0 -1.0025,-0.149001 -1.266589,-0.447001 -0.26313,-0.313687 -0.379587,-0.71372 -0.34985,-1.199927 0.01439,-0.235267 0.05106,-0.454464 0.110588,-0.658358 l 2.763139,-9.786999 z"
       id="path11" />
    <path
       style="font-style:italic;font-weight:900;font-stretch:condensed;font-family:'Proxima Nova Condensed';-inkscape-font-specification:'Proxima Nova Condensed, Heavy Italic Condensed';fill:#ffffff"
       d="m 50.818533,39.152113 c -1.693894,0 -3.20641,0.502065 -4.538224,1.505851 -1.330855,0.988107 -2.38014,2.242745 -3.147612,3.764111 -0.751787,1.521367 -1.174646,3.050264 -1.268656,4.587317 -0.07482,1.223367 0.124626,2.321436 0.598413,3.293856 0.490431,0.95674 1.21278,1.70983 2.167309,2.258777 0.95453,0.548947 2.090589,0.823206 3.408061,0.823206 0.580316,0 1.101138,-0.05505 1.562696,-0.164848 l 0.274918,0.894002 3.458187,-1.152901 -0.411861,-1.340487 c 1.172095,-0.95674 2.116911,-2.172492 2.834452,-3.646806 0.7185,-1.49 1.123264,-2.980011 1.214396,-4.470011 0.07482,-1.223367 -0.133304,-2.313351 -0.623734,-3.270085 -0.473787,-0.97242 -1.18805,-1.72551 -2.143539,-2.258777 -0.954529,-0.548946 -2.083017,-0.823205 -3.384806,-0.823205 z m -0.498678,3.928959 c 0.690106,0 1.216349,0.242941 1.578715,0.729154 0.379011,0.470527 0.54524,1.082191 0.499195,1.835031 -0.02974,0.486206 -0.13289,1.019582 -0.309542,1.599902 -0.160007,0.564627 -0.373942,1.113661 -0.641821,1.646928 l -0.274919,-0.894002 -3.456636,1.12913 0.72812,2.329056 c -0.673461,-0.01569 -1.192134,-0.258627 -1.55546,-0.729154 -0.347643,-0.470527 -0.498215,-1.08219 -0.452169,-1.83503 0.047,-0.768527 0.247358,-1.607989 0.600997,-2.517676 0.370282,-0.925367 0.8412,-1.70169 1.412834,-2.329057 0.588278,-0.643053 1.21195,-0.964282 1.870686,-0.964282 z"
       id="path5" />
    <path
       style="font-size:23.5263px;line-height:0.8;font-family:'Proxima Nova Condensed';-inkscape-font-specification:'Proxima Nova Condensed, Normal';text-align:center;letter-spacing:0.529167px;word-spacing:0.264583px;text-anchor:middle;fill:#ffffff;stroke-width:1.4901;stroke-linecap:round"
       d="m 93.816942,20.982162 -4.417818,15.692066 h 4.399215 l 2.531628,-9.0811 0.291455,9.0811 h 1.83503 l 5.401738,-9.0811 -2.55488,9.0811 h 4.37596 l 4.41782,-15.692066 h -5.92833 l -4.458638,7.504969 -0.176216,-7.504969 z"
       id="path10" />
    <path
       id="path9"
       style="font-size:23.5263px;line-height:0.8;font-family:'Proxima Nova Condensed';-inkscape-font-specification:'Proxima Nova Condensed, Normal';text-align:center;letter-spacing:0.529167px;word-spacing:0.264583px;text-anchor:middle;fill:#ffffff;stroke-width:1.4901;stroke-linecap:round"
       d="M 82.929751 20.982162 L 73.900845 36.674228 L 78.65301 36.674228 L 79.723745 34.557044 L 84.193757 34.557044 L 84.087303 36.674228 L 88.510289 36.674228 L 88.317536 20.982162 L 82.929751 20.982162 z M 84.722923 24.746791 L 84.401496 30.769162 L 81.649209 30.769162 L 84.722923 24.746791 z " />
    <path
       style="font-size:23.5263px;line-height:0.8;font-family:'Proxima Nova Condensed';-inkscape-font-specification:'Proxima Nova Condensed, Normal';text-align:center;letter-spacing:0.529167px;word-spacing:0.264583px;text-anchor:middle;fill:#ffffff;stroke-width:1.4901;stroke-linecap:round"
       d="M 67.902245,20.982162 63.48391,36.674228 h 9.904822 l 1.054716,-3.787366 h -5.434294 l 0.632003,-2.258777 h 5.293733 l 1.054716,-3.787882 h -5.269445 l 0.573608,-2.070158 h 5.434294 l 1.078487,-3.787883 z"
       id="path7" />
    <path
       style="font-size:23.5263px;line-height:0.8;font-family:'Proxima Nova Condensed';-inkscape-font-specification:'Proxima Nova Condensed, Normal';text-align:center;letter-spacing:0.529167px;word-spacing:0.264583px;text-anchor:middle;fill:#ffffff;stroke-width:1.4901;stroke-linecap:round"
       d="m 55.368126,20.982162 -1.084171,3.881934 h 3.246313 l -3.333647,11.810132 h 4.470012 l 3.310392,-11.810132 h 3.223059 l 1.107943,-3.881934 z"
       id="path4" />
    <path
       style="font-size:51.1861px;line-height:0.8;font-family:'Proxima Nova Condensed';-inkscape-font-specification:'Proxima Nova Condensed, Normal';text-align:center;letter-spacing:1.1513px;word-spacing:0.575653px;text-anchor:middle;stroke-width:3.24201;stroke-linecap:round;fill:#ffffff"
       d="m 143.48678,20.96821 -9.61285,34.141068 h 18.06866 c 2.52518,0 4.63807,-0.512103 6.33863,-1.535823 1.73678,-1.057847 3.029,-2.371655 3.87574,-3.941362 0.88086,-1.569706 1.37206,-3.190672 1.47433,-4.862752 0.0939,-1.53558 -0.23078,-2.917533 -0.97462,-4.146 -0.70972,-1.228469 -1.80297,-2.047209 -3.27939,-2.456698 1.40744,-0.136496 2.71861,-0.648597 3.93309,-1.535823 1.21449,-0.887226 2.18635,-1.996091 2.91611,-3.326929 0.76388,-1.330839 1.19079,-2.729824 1.28054,-4.19716 0.0877,-1.43321 -0.18949,-2.764055 -0.83096,-3.992521 -0.60735,-1.228467 -1.60426,-2.218082 -2.99155,-2.968811 -1.38521,-0.784854 -3.11863,-1.177189 -5.2002,-1.177189 z m 7.45174,7.882723 h 4.146 c 0.71661,0 1.23307,0.204427 1.54926,0.613916 0.35241,0.375365 0.50888,0.887466 0.46922,1.535823 -0.0459,0.75073 -0.32549,1.416152 -0.83871,1.996261 -0.51321,0.580109 -1.21342,0.870231 -2.10064,0.870231 h -4.60696 z m -3.65559,12.898437 h 4.76043 c 0.68249,0 1.19793,0.221979 1.54616,0.665593 0.35032,0.409486 0.50679,0.92159 0.46922,1.535823 -0.0564,0.921354 -0.41168,1.706025 -1.06557,2.354379 -0.6518,0.614233 -1.43819,0.92139 -2.35954,0.92139 h -4.86275 z"
       id="path15" />
    <path
       style="font-size:51.1861px;line-height:0.8;font-family:'Proxima Nova Condensed';-inkscape-font-specification:'Proxima Nova Condensed, Normal';text-align:center;letter-spacing:1.1513px;word-spacing:0.575653px;text-anchor:middle;stroke-width:3.24201;stroke-linecap:round;fill:#ffffff"
       d="m 113.47362,20.96821 -9.61233,34.141068 h 9.57151 l 4.99246,-18.017505 4.17029,18.017505 h 9.16223 l 9.61233,-34.141068 h -9.52035 l -4.77593,16.993795 -3.77238,-16.993795 z"
       id="path3" />
  </g>
</svg>
