<?xml version="1.0" encoding="UTF-8" standalone="no"?>
<svg
   viewBox="0 0 128.20117 128.20312"
   version="1.1"
   id="svg7"
   sodipodi:docname="favicon.svg"
   width="128.20117"
   height="128.20312"
   inkscape:version="1.4.4 (1:1.4.4+202605061436+dcaf3e7d9e)"
   xmlns:inkscape="http://www.inkscape.org/namespaces/inkscape"
   xmlns:sodipodi="http://sodipodi.sourceforge.net/DTD/sodipodi-0.dtd"
   xmlns="http://www.w3.org/2000/svg"
   xmlns:svg="http://www.w3.org/2000/svg">
  <defs
     id="defs7" />
  <sodipodi:namedview
     id="namedview7"
     pagecolor="#ffd7ff"
     bordercolor="#000000"
     borderopacity="0.24705882"
     inkscape:showpageshadow="2"
     inkscape:pageopacity="0.0"
     inkscape:pagecheckerboard="0"
     inkscape:deskcolor="#d1d1d1"
     inkscape:zoom="2.7690572"
     inkscape:cx="66.087476"
     inkscape:cy="80.171692"
     inkscape:window-width="1503"
     inkscape:window-height="893"
     inkscape:window-x="0"
     inkscape:window-y="0"
     inkscape:window-maximized="1"
     inkscape:current-layer="svg7" />
  <path
     d="M 64.101563,0 A 64.101242,64.101242 0 0 0 0,64.101562 64.101242,64.101242 0 0 0 23.861328,113.99805 C 42.736242,96.722171 67.649736,79.44744 88.410156,81.648437 c -4.82,15.290004 -25,44.019533 -25,44.019533 7.8,-19.72 13.5,-34.529298 13.5,-34.529298 -12.680384,2.321909 -32.131549,14.592408 -48.402343,26.273438 a 64.101242,64.101242 0 0 0 35.59375,10.79101 64.101242,64.101242 0 0 0 64.099607,-64.101558 64.101242,64.101242 0 0 0 -0.83984,-10.34375 l -15.3418,8.03125 c 1.04,3.4 -0.12054,7.05 -2.81054,9.25 l -2.76953,-6.310547 c -3.09,1.72 -20.660085,11.450313 -27.330085,13.820313 -15.19,5.39 -25.080625,-0.821641 -29.390625,-10.931641 -3.34,-7.83 -1.239844,-16.468593 3.410156,-23.308594 C 52.848906,64.498594 61.86,74.778515 76,72.228515 c 7.09,-1.27 25.9993,-9.410703 29.0293,-10.720703 l -2.53906,-5.789062 c 3.06,-0.43 6.14859,0.798515 8.05859,3.228515 L 126.82227,50.875 A 64.101242,64.101242 0 0 0 64.101563,0 Z m 5.625,4.6191402 c 5.09125,-0.08125 8.193359,0.308594 8.193359,0.308594 v -0.0098 L 79.5,13.148402 c -6.25,-2.67 -29.900391,-6.0097648 -29.900391,-6.0097648 7.955,-1.885 15.035704,-2.438282 20.126954,-2.519532 z m 10.873046,0.738282 8.900388,19.4199208 C 105.67,31.957343 111.60938,43.71875 111.60938,43.71875 99.809377,33.60875 78.579531,24.518672 47.269531,22.638672 c 0,0 3.360703,7.848906 3.470703,20.378906 l 0.0098,-0.0098 c -8.83,12.36 -3.980469,24.650391 -3.980469,24.650391 -8.63,24.180002 -29.820312,35.449221 -29.820312,35.449221 38.2,-37.870002 20.689453,-88.339846 20.689453,-88.339846 19.05,0.580001 34.501172,3.519609 46.451172,7.849609 z M 76.476563,47.132812 c 13.984554,0.02406 13.589604,16.227578 -5.447266,17.064453 -0.95,0.05 -2.009766,-0.138672 -2.009766,-0.138672 2.4,-1.27 4.58961,-3.82039 4.59961,-6.65039 0.02,-4.569999 -5.450313,-6.460547 -9.070313,-7.310547 v -0.0098 c 4.70625,-2.105625 8.70053,-2.960678 11.927735,-2.955078 z"
     style="opacity:1;fill:#ffffff;stroke-width:11.2206;stroke-linecap:round"
     id="path14" />
  <path
     d="m 76.476563,47.132812 c -3.227205,-0.0056 -7.221485,0.849453 -11.927735,2.955078 v 0.0098 c 3.62,0.85 9.090313,2.740548 9.070313,7.310547 -0.01,2.83 -2.19961,5.38039 -4.59961,6.65039 0,0 1.059766,0.188672 2.009766,0.138672 19.03687,-0.836875 19.43182,-17.040396 5.447266,-17.064453 z"
     id="path21" />
  <path
     d="m 80.599609,5.3574222 3.490235,17.2597648 c -11.95,-4.33 -27.401172,-7.269608 -46.451172,-7.849609 0,0 17.510547,50.469844 -20.689453,88.339842 0,0 21.190312,-11.269219 29.820312,-35.449217 0,0 -4.849531,-12.290391 3.980469,-24.650391 l -0.0098,0.0098 c -0.11,-12.53 -3.470703,-20.378906 -3.470703,-20.378906 31.31,1.88 52.53985,10.970078 64.339853,21.080078 0,0 -5.93938,-11.761407 -22.109383,-18.941407 z"
     id="path20" />
  <path
     d="m 69.726563,4.6191402 c -5.09125,0.08125 -12.171954,0.634532 -20.126954,2.519532 0,0 23.650391,3.3397648 29.900391,6.0097648 L 77.919922,4.9179692 v 0.0098 c 0,0 -3.102109,-0.389844 -8.193359,-0.308594 z"
     id="path19" />
  <path
     d="m 28.507813,117.41211 c 16.270794,-11.68103 35.721959,-23.951529 48.402343,-26.273438 0,0 -5.7,14.809298 -13.5,34.529298 0,0 20.18,-28.729529 25,-44.019533 C 67.649736,79.44744 42.736242,96.722171 23.861328,113.99805 a 64.101242,64.101242 0 0 0 4.646485,3.41406 z"
     id="path18" />
  <path
     d="m 126.82227,50.875 -16.27344,8.072265 c -1.91,-2.43 -4.99859,-3.658515 -8.05859,-3.228515 l 2.53906,5.789062 c -3.03,1.31 -21.9393,9.450703 -29.0293,10.720703 -14.14,2.55 -23.151094,-7.729921 -22.871094,-27.919922 -4.65,6.840001 -6.750156,15.478594 -3.410156,23.308594 4.31,10.11 14.200625,16.321641 29.390625,10.931641 6.67,-2.37 24.240085,-12.100313 27.330085,-13.820313 l 2.76953,6.310547 c 2.69,-2.2 3.85054,-5.85 2.81054,-9.25 l 15.3418,-8.03125 A 64.101242,64.101242 0 0 0 126.82227,50.875 Z"
     id="path16" />
</svg>
