<?xml version="1.0" encoding="UTF-8"?>
<svg id="Layer_1" xmlns="http://www.w3.org/2000/svg" version="1.1" viewBox="0 0 547.82 234.13">
  <!-- Generator: Adobe Illustrator 30.1.0, SVG Export Plug-In . SVG Version: 2.1.1 Build 136)  -->
  <defs>
    <style>
      .st0 {
        fill: #231f20;
      }
    </style>
  </defs>
  <path class="st0" d="M61.57,156.55l10.14-35.35h22.32l-2.45,8.53h-12.3l-1.34,4.66h11.93l-2.45,8.53h-11.93l-1.46,5.09h12.3l-2.45,8.53h-22.32Z"/>
  <path class="st0" d="M93.69,144.84c1.48,2.23,4.29,3.71,7.63,3.71,1.91,0,3.58-.85,3.96-2.17.44-1.54-.91-2.38-3.46-3.29-4.13-1.48-10.28-3.34-8.01-11.24,1.66-5.78,7.67-11.24,16.37-11.24,4.66,0,8.49,1.43,10.86,4.08l-6.69,7.42c-1.77-1.96-4.37-2.86-6.65-2.86s-3.19.95-3.49,2.01c-.43,1.48.9,2.23,3.59,3.18,4.13,1.48,9.99,3.6,7.88,10.97-2.07,7.21-8.46,11.77-16.68,11.77-6.1,0-9.83-1.75-12.16-4.72l6.85-7.63Z"/>
  <path class="st0" d="M118.29,138.9c3.12-10.87,11.5-18.29,21.3-18.29,8.27,0,10.13,5.51,10.52,10.07l-9.32,3.5c.1-2.76-1.09-4.72-3.74-4.72-3.71,0-6.96,3.92-8.54,9.43-1.58,5.51-.58,9.43,3.13,9.43,2.7,0,5.16-2.28,6.59-5.04l7.28,3.45c-2.83,4.51-8.03,10.44-16.4,10.44-9.81,0-13.92-7.47-10.82-18.29Z"/>
  <path class="st0" d="M161.18,156.55l-.66-11.56h-2.54l-3.31,11.56h-10.02l10.14-35.35h15.58c7.31,0,10.37,5.25,8.5,11.77-1.7,5.94-5.54,8.96-8.25,10.28l1.64,13.3h-11.08ZM166.33,129.73h-3.98l-1.93,6.73h3.98c1.8,0,3.65-1.27,4.26-3.39.61-2.12-.53-3.34-2.33-3.34Z"/>
  <path class="st0" d="M173.92,156.55l10.14-35.35h10.02l-10.14,35.35h-10.02Z"/>
  <path class="st0" d="M214.02,156.55l6.02-20.99-12.49,20.99h-4.35l-.39-20.99-6.02,20.99h-9.75l10.14-35.35h13.2l.14,17.44,10.25-17.44h13.09l-10.14,35.35h-9.7Z"/>
  <path class="st0" d="M226.82,156.55l10.14-35.35h22.31l-2.45,8.53h-12.3l-1.34,4.66h11.93l-2.45,8.53h-11.93l-1.46,5.09h12.3l-2.45,8.53h-22.31Z"/>
  <path class="st0" d="M81.25,114.23l10.14-35.35h22.31l-2.45,8.53h-12.3l-1.34,4.66h11.93l-2.45,8.53h-11.93l-3.91,13.62h-10.02Z"/>
  <path class="st0" d="M106.52,114.23l10.14-35.35h22.31l-2.45,8.53h-12.3l-1.34,4.66h11.93l-2.45,8.53h-11.93l-1.46,5.09h12.3l-2.45,8.53h-22.31Z"/>
  <path class="st0" d="M151.46,114.23l-4.27-18.18-5.21,18.18h-9.91l10.14-35.35h10.18l3.94,17.12,4.91-17.12h9.86l-10.14,35.35h-9.49Z"/>
  <path class="st0" d="M167.3,96.58c3.12-10.87,11.5-18.29,21.3-18.29,8.27,0,10.13,5.51,10.52,10.07l-9.32,3.5c.1-2.76-1.09-4.72-3.74-4.72-3.71,0-6.96,3.92-8.54,9.43-1.58,5.51-.58,9.43,3.13,9.43,2.7,0,5.16-2.28,6.59-5.04l7.28,3.45c-2.83,4.51-8.03,10.44-16.4,10.44-9.81,0-13.92-7.47-10.82-18.29Z"/>
  <path class="st0" d="M193.6,114.23l10.14-35.35h10.02l-10.14,35.35h-10.02Z"/>
  <path class="st0" d="M226.12,114.23l-4.27-18.18-5.21,18.18h-9.91l10.14-35.35h10.18l3.94,17.12,4.91-17.12h9.86l-10.14,35.35h-9.49Z"/>
  <path class="st0" d="M263.7,78.29c6.94,0,9.9,4.29,10.33,9.28l-9.26,3.66c-.1-2.23-1.16-4.08-3.6-4.08-3.45,0-6.81,2.86-8.7,9.43-1.87,6.52-.16,9.43,3.28,9.43,1.75,0,3.32-.48,4.57-1.32l.73-2.54h-5.04l2.43-8.48h14.31l-4.32,15.05c-4.47,3.76-9.34,6.15-15.23,6.15-9.81,0-14.14-7.26-10.98-18.29,3.19-11.13,11.71-18.29,21.46-18.29Z"/>
  <path id="path64" class="st0" d="M318.93,135.82s-5.7,14.81-13.5,34.53c0,0,20.18-28.73,25-44.02-32.73-3.47-75.78,41.47-89.22,58.5,0,0,52.38-44.37,77.72-49.01Z"/>
  <path class="st0" d="M306.57,94.78c3.62.85,9.09,2.74,9.07,7.31-.01,2.83-2.2,5.38-4.6,6.65,0,0,1.06.19,2.01.14,23.43-1.03,18.62-25.34-6.48-14.11Z"/>
  <path class="st0" d="M408.36,156.55l22.3-77.79h38.6c15.63,0,18.83,10.38,16.12,19.83-2.78,9.68-10.1,16.09-18.06,17.84,7.8,1.28,11.62,9.1,8.78,19.01-3.14,10.96-12.47,21.11-27.74,21.11h-40ZM444.28,108.16h10.96c3.03,0,5.72-2.45,6.69-5.83.9-3.15-.38-5.6-3.41-5.6h-10.96l-3.28,11.43ZM435.55,138.59h11.55c3.5,0,6.45-2.57,7.49-6.18,1-3.5-.41-6.3-3.91-6.3h-11.55l-3.58,12.48Z"/>
  <polygon class="st0" points="385.99 84.79 384.6 78.77 362.21 78.77 356.33 99.29 385.99 84.79"/>
  <path class="st0" d="M319.94,49.61s-12.41-1.56-28.32,2.21c0,0,23.65,3.34,29.9,6.01l-1.58-8.23Z"/>
  <path class="st0" d="M292.76,87.7c-.11-12.53-3.47-20.38-3.47-20.38,31.31,1.88,52.54,10.97,64.34,21.08,0,0-5.94-11.76-22.11-18.94l-8.9-19.42,3.49,17.26c-11.95-4.33-27.4-7.27-46.45-7.85,0,0,17.51,50.47-20.69,88.34,0,0,21.19-11.27,29.82-35.45,0,0-4.85-12.29,3.98-24.65Z"/>
  <path class="st0" d="M402.63,83.83l-9.35,32.6-5.7-24.74-30.86,16.03c.03.24.05.48.06.73.16,3.44-1.27,6.86-4.04,9.12l-2.16,1.77-10.67,37.21h21.81l11.47-40,9.41,40h20.87l22.3-77.79h-13.54l-9.6,5.06Z"/>
  <path class="st0" d="M411.19,74.27c-.56,0-1.02.37-1.2.87l-57.42,28.49c-1.91-2.43-5-3.66-8.06-3.23l2.54,5.79c-3.03,1.31-21.94,9.45-29.03,10.72-14.14,2.55-23.15-7.73-22.87-27.92-4.65,6.84-6.75,15.48-3.41,23.31,4.31,10.11,14.2,16.32,29.39,10.93,6.67-2.37,24.24-12.1,27.33-13.82l2.77,6.31c2.69-2.2,3.85-5.85,2.81-9.25l56.8-29.73c.11.03.21.07.33.07.71,0,1.28-.57,1.28-1.28s-.57-1.28-1.28-1.28Z"/>
</svg>