<svg xmlns="http://www.w3.org/2000/svg" aria-hidden="true" viewBox="0 0 529.7 529.9" fill="#79242f"><path d="M178.9,284.7l-23.4,53.1-72.3,27.7-7.8,16.2,95.1-24.2,55.5-70.3-4.8,18.3,50.1-5.3,23.9,74.4,19.7,6.8-19.9-105.6-60.7-2.6,21.1-51.8,88.7-25.9v8.2l10.7-12.1,133.6-.2,9.3-7-142.8.2-10.8-11.9v9.4l-88.7,13.8-4.5-.6,3.4-1.5c4.8-2.6,7.8-7.5,8-13,.5-12.9,2.3-32.6-13.2-32.6l-1,24.7-4.1-24.1h-7c0,.1,0,3.5,0,3.5-12.7.4-16.4,11.7-15.4,16.4.5,2.2,2.8,12.7,2.8,12.7l6.8,11.3-29.6-3.9-44.4,19.6-37.7,51.1,13.1.2,35.5-36.1,29.4-4.4-5.4,53.4-13.3,12.2Z"></path></svg>
