<?xml version="1.0" encoding="UTF-8" standalone="no"?>
<svg
   id="Layer_1"
   version="1.1"
   viewBox="0 0 371.52218 233.2924"
   sodipodi:docname="FencingNB-Logo-Small-OneColour-Black.svg"
   width="371.52219"
   height="233.2924"
   inkscape:version="1.4.3 (1:1.4.3+202512261035+0d15f75042)"
   xmlns:inkscape="http://www.inkscape.org/namespaces/inkscape"
   xmlns:sodipodi="http://sodipodi.sourceforge.net/DTD/sodipodi-0.dtd"
   xmlns="http://www.w3.org/2000/svg"
   xmlns:svg="http://www.w3.org/2000/svg">
  <sodipodi:namedview
     id="namedview20"
     pagecolor="#ffffff"
     bordercolor="#000000"
     borderopacity="0.25"
     inkscape:showpageshadow="2"
     inkscape:pageopacity="0.0"
     inkscape:pagecheckerboard="0"
     inkscape:deskcolor="#d1d1d1"
     showgrid="false"
     inkscape:zoom="1.6209704"
     inkscape:cx="121.53214"
     inkscape:cy="117.21374"
     inkscape:window-width="1503"
     inkscape:window-height="893"
     inkscape:window-x="0"
     inkscape:window-y="0"
     inkscape:window-maximized="1"
     inkscape:current-layer="Layer_1" />
  <!-- Generator: Adobe Illustrator 30.1.0, SVG Export Plug-In . SVG Version: 2.1.1 Build 136)  -->
  <defs
     id="defs1">
    <inkscape:path-effect
       effect="envelope"
       id="path-effect1"
       is_visible="true"
       lpeversion="0"
       yy="true"
       xx="true"
       bendpath1="M 0,0 H 1"
       bendpath2="M 0,0 H 1"
       bendpath3="M 0,0 H 1"
       bendpath4="M 0,0 H 1" />
    <style
       id="style1">
      .st0 {
        fill: #fff;
      }
    </style>
  </defs>
  <path
     id="path64"
     class="st0"
     d="m 138.76588,135.82 c 0,0 -5.7,14.81 -13.5,34.53 0,0 20.18,-28.73 25,-44.02 -32.73,-3.47 -75.78,41.47 -89.22,58.5 0,0 52.38,-44.37 77.72,-49.01 z"
     style="fill:#000000" />
  <path
     class="st0"
     d="m 126.40588,94.78 c 3.62,0.85 9.09,2.74 9.07,7.31 -0.01,2.83 -2.2,5.38 -4.6,6.65 0,0 1.06,0.19 2.01,0.14 23.43,-1.03 18.62,-25.34 -6.48,-14.11 z"
     id="path15"
     style="fill:#000000" />
  <polygon
     class="st0"
     points="385.99,84.79 384.6,78.77 362.21,78.77 356.33,99.29 "
     id="polygon16"
     transform="translate(-180.16412)"
     style="fill:#000000" />
  <path
     class="st0"
     d="m 139.77588,49.61 c 0,0 -12.41,-1.56 -28.32,2.21 0,0 23.65,3.34 29.9,6.01 l -1.58,-8.23 z"
     id="path17"
     style="fill:#000000" />
  <path
     class="st0"
     d="m 112.59588,87.7 c -0.11,-12.53 -3.47,-20.38 -3.47,-20.38 31.31,1.88 52.54,10.97 64.34,21.08 0,0 -5.94,-11.76 -22.11,-18.94 l -8.9,-19.42 3.49,17.26 c -11.95,-4.33 -27.4,-7.27 -46.45,-7.85 0,0 17.51,50.47 -20.69,88.34 0,0 21.19,-11.27 29.82,-35.45 0,0 -4.85,-12.29 3.98,-24.65 z"
     id="path18"
     style="fill:#000000" />
  <path
     class="st0"
     d="m 231.02588,74.27 c -0.56,0 -1.02,0.37 -1.2,0.87 l -57.42,28.49 c -1.91,-2.43 -5,-3.66 -8.06,-3.23 l 2.54,5.79 c -3.03,1.31 -21.94,9.45 -29.03,10.72 -14.14,2.55 -23.15,-7.73 -22.87,-27.92 -4.65,6.84 -6.75,15.48 -3.41,23.31 4.31,10.11 14.2,16.32 29.39,10.93 6.67,-2.37 24.24,-12.1 27.33,-13.82 l 2.77,6.31 c 2.69,-2.2 3.85,-5.85 2.81,-9.25 l 56.8,-29.73 c 0.11,0.03 0.21,0.07 0.33,0.07 0.71,0 1.28,-0.57 1.28,-1.28 0,-0.71 -0.57,-1.28 -1.28,-1.28 z"
     id="path20"
     style="fill:#000000" />
  <path
     style="font-size:88.9183px;line-height:0.8;font-family:'Proxima Nova Condensed';-inkscape-font-specification:'Proxima Nova Condensed, Normal';text-align:center;letter-spacing:2px;word-spacing:0.999999px;text-anchor:middle;fill:#1a1a1a;stroke-width:5.63187;stroke-linecap:round"
     d="m 136.20589,212.73386 h -12.27073 l 3.20106,-14.67151 h 41.34701 l -3.28998,14.67151 h -12.18181 l -9.78101,44.63699 h -16.89448 z m 37.68849,-14.67151 h 37.43461 l -3.20106,14.31584 H 187.5878 l -1.68945,7.82481 h 19.9177 l -3.11214,14.31585 h -20.00662 l -1.86728,8.53615 h 20.54013 l -3.11214,14.31585 h -37.43461 z m 56.18351,0 h 20.36229 l 4.35699,59.3085 h -16.71664 l -0.0889,-8.00265 h -16.89447 l -3.55673,8.00265 h -17.9615 z m 7.82481,36.99001 -0.17784,-22.76309 -10.22561,22.76309 z m 32.70913,-36.99001 h 21.60714 l 2.4008,28.36493 15.11611,-28.36493 h 22.40741 l -13.07099,59.3085 h -16.5388 l 7.55805,-34.32246 -18.31717,34.32246 h -6.93562 l -3.20106,-34.32246 -7.46914,34.32246 h -16.62772 z"
     id="text1"
     aria-label="TEAM " />
  <path
     style="font-size:88.9183px;line-height:0.8;font-family:'Proxima Nova Condensed';-inkscape-font-specification:'Proxima Nova Condensed, Normal';text-align:center;letter-spacing:2px;word-spacing:0.999999px;text-anchor:middle;fill:#1a1a1a;stroke-width:5.63187;stroke-linecap:round"
     d="m 42.071048,276.25641 h 37.434603 l -3.201059,14.31584 H 55.764466 l -1.689448,7.82481 h 19.917699 l -3.112141,14.31585 H 50.873959 l -1.867284,8.53616 h 20.540127 l -3.112141,14.31584 H 29.000058 Z m 14.938274,-4.97943 11.737215,-12.80423 h 12.804235 l -14.671519,12.80423 z m 49.514628,64.73252 q -2.57863,0.62243 -5.86861,0.62243 -7.469132,0 -13.070985,-3.11214 -5.601853,-3.11214 -8.713993,-8.53616 -3.023222,-5.51293 -3.023222,-12.44856 0,-8.71399 3.734568,-17.33907 3.823487,-8.62507 11.025869,-14.22692 7.202382,-5.69077 16.805563,-5.69077 7.38021,0 12.98207,3.11214 5.60185,3.02322 8.62507,8.53615 3.11214,5.42402 3.11214,12.35965 0,8.44723 -3.55673,16.89447 -3.55673,8.35832 -9.86993,13.78234 l 1.86728,5.06834 -12.80423,4.357 z M 93.097289,312.09048 q 0,4.26808 2.13404,6.93563 2.222957,2.66755 6.046441,2.75646 l -3.289974,-8.80291 12.804234,-4.26807 1.24486,3.37889 q 1.33377,-3.02322 2.04512,-6.22428 0.80026,-3.28998 0.80026,-6.04644 0,-4.26808 -2.31187,-6.93563 -2.22296,-2.75647 -6.13537,-2.75647 -3.73456,0 -6.846705,3.64565 -3.023222,3.55673 -4.801588,8.80291 -1.689448,5.15726 -1.689448,9.51426 z m 63.830561,24.54145 q -6.84671,0 -11.91505,-2.40079 -5.06834,-2.48972 -7.82481,-6.84671 -2.66755,-4.357 -2.66755,-9.95885 0,-2.93431 0.62243,-5.51294 l 7.91373,-35.65623 h 16.98339 l -8.18048,36.99001 q -0.26676,1.15594 -0.26676,2.48971 0,2.75647 1.60053,4.53483 1.60053,1.68945 4.89051,1.68945 6.40212,0 8.09157,-7.91373 l 8.35831,-37.79027 h 16.9834 l -8.35832,37.52352 q -2.40079,10.93695 -8.98075,16.89447 -6.49103,5.95753 -17.25015,5.95753 z m 42.66804,-60.37552 h 16.80556 l -13.07099,59.3085 H 186.5249 Z m 24.88431,0 h 24.09686 q 5.24618,0 9.2475,2.31187 4.09024,2.22296 6.3132,6.13537 2.22295,3.9124 2.22295,8.62507 0,5.60185 -2.66754,10.93695 -2.57863,5.24618 -8.26941,8.80291 -5.60185,3.46782 -14.22692,3.46782 h -8.80291 l -4.17916,19.02851 h -16.80556 z m 17.60582,25.60847 q 3.11214,0 4.97942,-1.95621 1.86729,-1.9562 1.86729,-4.80158 0,-2.13404 -1.24486,-3.28998 -1.24485,-1.24486 -3.46781,-1.24486 h -6.04645 l -2.48971,11.29263 z m 33.4205,-25.60847 h 37.4346 l -3.20106,14.31584 h -20.54012 l -1.68945,7.82481 h 19.9177 l -3.11214,14.31585 h -20.00662 l -1.86728,8.53616 h 20.54012 l -3.11214,14.31584 h -37.4346 z"
     id="text2"
     aria-label="ÉQUIPE&#10;" />
  <path
     style="font-size:206.244px;line-height:0.8;font-family:'Proxima Nova Condensed';-inkscape-font-specification:'Proxima Nova Condensed, Normal';text-align:center;letter-spacing:4.63899px;word-spacing:2.31948px;text-anchor:middle;fill:#1a1a1a;stroke-width:13.063;stroke-linecap:round"
     d="m 351.07528,198.00016 h 39.59885 l 19.38694,68.47301 15.05581,-68.47301 h 38.36138 L 433.1604,335.56491 h -36.91768 l -21.24313,-72.59789 -15.67455,72.59789 h -38.56763 z m 124.55454,0 h 60.42949 q 12.58089,0 21.24313,4.74361 8.66225,4.53737 12.78713,11.96215 4.33113,7.42479 4.33113,16.08704 0,8.86849 -4.12488,16.91201 -3.91864,8.04351 -10.93094,13.40586 -7.01229,5.36234 -15.4683,6.18732 9.07474,2.47492 13.81835,9.89971 4.94986,7.42478 4.94986,16.70576 0,10.10596 -4.74361,19.59318 -4.53737,9.48723 -14.64333,15.88079 -9.89971,6.18732 -25.16177,6.18732 h -72.80413 z m 35.26772,105.80317 q 5.56859,0 9.28098,-3.71239 3.71239,-3.91863 3.71239,-9.48722 0,-3.71239 -2.26868,-6.18732 -2.26868,-2.68117 -6.39356,-2.68117 h -19.1807 l -4.74361,22.0681 z m 10.93093,-53.82968 q 5.36235,0 8.24976,-3.50615 2.88742,-3.50615 2.88742,-8.04351 0,-3.91864 -2.26868,-6.18732 -2.06244,-2.47493 -6.39357,-2.47493 h -16.70576 l -4.33113,20.21191 z"
     id="text4"
     aria-label="NB"
     inkscape:path-effect="#path-effect1"
     inkscape:original-d="m 351.07528,198.00016 h 39.59885 l 19.38694,68.47301 15.05581,-68.47301 h 38.36138 L 433.1604,335.56491 h -36.91768 l -21.24313,-72.59789 -15.67455,72.59789 h -38.56763 z m 124.55454,0 h 60.42949 q 12.58089,0 21.24313,4.74361 8.66225,4.53737 12.78713,11.96215 4.33113,7.42479 4.33113,16.08704 0,8.86849 -4.12488,16.91201 -3.91864,8.04351 -10.93094,13.40586 -7.01229,5.36234 -15.4683,6.18732 9.07474,2.47492 13.81835,9.89971 4.94986,7.42478 4.94986,16.70576 0,10.10596 -4.74361,19.59318 -4.53737,9.48723 -14.64333,15.88079 -9.89971,6.18732 -25.16177,6.18732 h -72.80413 z m 35.26772,105.80317 q 5.56859,0 9.28098,-3.71239 3.71239,-3.91863 3.71239,-9.48722 0,-3.71239 -2.26868,-6.18732 -2.26868,-2.68117 -6.39356,-2.68117 h -19.1807 l -4.74361,22.0681 z m 10.93093,-53.82968 q 5.36235,0 8.24976,-3.50615 2.88742,-3.50615 2.88742,-8.04351 0,-3.91864 -2.26868,-6.18732 -2.06244,-2.47493 -6.39357,-2.47493 h -16.70576 l -4.33113,20.21191 z" />
  <path
     class="st0"
     d="m 430.84575,207.37133 -16.46843,57.41933 -10.03957,-43.57528 -54.35461,28.2341 c 0.0528,0.42272 0.0881,0.84544 0.10568,1.28577 0.28181,6.05898 -2.23689,12.08272 -7.11577,16.06333 l -3.80447,3.11755 -18.79338,65.53905 h 38.41458 l 20.20245,-70.45316 16.5741,70.45316 h 36.75894 L 471.6029,198.4414 h -23.84839 l -16.90876,8.91232 z"
     id="path19"
     style="fill:#ffff00;stroke-width:1.76133;opacity:0.5" />
  <path
     class="st0"
     d="M 447.29356,335.04718 486.57119,198.0334 h 67.9873 c 27.52957,0 33.16583,18.28259 28.39263,34.92715 -4.8965,17.04967 -17.78943,28.33978 -31.80961,31.42211 13.73837,2.2545 20.46665,16.02809 15.46447,33.48286 -5.53057,19.30417 -21.96377,37.18166 -48.85926,37.18166 z m 63.26693,-85.23071 h 19.30417 c 5.33683,0 10.0748,-4.31526 11.78329,-10.26855 1.5852,-5.54819 -0.6693,-9.86344 -6.00613,-9.86344 h -19.30417 z m -15.3764,53.59724 h 20.34335 c 6.16465,0 11.36057,-4.52661 13.19236,-10.88501 1.76132,-6.16465 -0.72215,-11.09637 -6.8868,-11.09637 h -20.34335 z"
     id="path16"
     style="opacity:0.5;fill:#ffff00;stroke-width:1.76133" />
</svg>
