<?xml version="1.0" encoding="UTF-8" standalone="no"?>
<svg
   id="Layer_1"
   version="1.1"
   viewBox="0 0 371.52218 233.2924"
   sodipodi:docname="FencingNB-Logo-Small-OneColour-White.svg"
   width="371.52219"
   height="233.2924"
   inkscape:version="1.4.3 (1:1.4.3+202512261035+0d15f75042)"
   xmlns:inkscape="http://www.inkscape.org/namespaces/inkscape"
   xmlns:sodipodi="http://sodipodi.sourceforge.net/DTD/sodipodi-0.dtd"
   xmlns="http://www.w3.org/2000/svg"
   xmlns:svg="http://www.w3.org/2000/svg">
  <sodipodi:namedview
     id="namedview20"
     pagecolor="#ffffff"
     bordercolor="#000000"
     borderopacity="0.25"
     inkscape:showpageshadow="2"
     inkscape:pageopacity="0.0"
     inkscape:pagecheckerboard="0"
     inkscape:deskcolor="#d1d1d1"
     showgrid="false"
     inkscape:zoom="1.6209704"
     inkscape:cx="121.53214"
     inkscape:cy="117.21374"
     inkscape:window-width="1503"
     inkscape:window-height="893"
     inkscape:window-x="0"
     inkscape:window-y="0"
     inkscape:window-maximized="1"
     inkscape:current-layer="Layer_1" />
  <!-- Generator: Adobe Illustrator 30.1.0, SVG Export Plug-In . SVG Version: 2.1.1 Build 136)  -->
  <defs
     id="defs1">
    <style
       id="style1">
      .st0 {
        fill: #fff;
      }
    </style>
  </defs>
  <path
     id="path64"
     class="st0"
     d="m 138.76588,135.82 c 0,0 -5.7,14.81 -13.5,34.53 0,0 20.18,-28.73 25,-44.02 -32.73,-3.47 -75.78,41.47 -89.22,58.5 0,0 52.38,-44.37 77.72,-49.01 z" />
  <path
     class="st0"
     d="m 126.40588,94.78 c 3.62,0.85 9.09,2.74 9.07,7.31 -0.01,2.83 -2.2,5.38 -4.6,6.65 0,0 1.06,0.19 2.01,0.14 23.43,-1.03 18.62,-25.34 -6.48,-14.11 z"
     id="path15" />
  <path
     class="st0"
     d="m 228.19588,156.55 22.3,-77.79 h 38.6 c 15.63,0 18.83,10.38 16.12,19.83 -2.78,9.68 -10.1,16.09 -18.06,17.84 7.8,1.28 11.62,9.1 8.78,19.01 -3.14,10.96 -12.47,21.11 -27.74,21.11 z m 35.92,-48.39 h 10.96 c 3.03,0 5.72,-2.45 6.69,-5.83 0.9,-3.15 -0.38,-5.6 -3.41,-5.6 h -10.96 z m -8.73,30.43 h 11.55 c 3.5,0 6.45,-2.57 7.49,-6.18 1,-3.5 -0.41,-6.3 -3.91,-6.3 h -11.55 z"
     id="path16" />
  <polygon
     class="st0"
     points="385.99,84.79 384.6,78.77 362.21,78.77 356.33,99.29 "
     id="polygon16"
     transform="translate(-180.16412)" />
  <path
     class="st0"
     d="m 139.77588,49.61 c 0,0 -12.41,-1.56 -28.32,2.21 0,0 23.65,3.34 29.9,6.01 l -1.58,-8.23 z"
     id="path17" />
  <path
     class="st0"
     d="m 112.59588,87.7 c -0.11,-12.53 -3.47,-20.38 -3.47,-20.38 31.31,1.88 52.54,10.97 64.34,21.08 0,0 -5.94,-11.76 -22.11,-18.94 l -8.9,-19.42 3.49,17.26 c -11.95,-4.33 -27.4,-7.27 -46.45,-7.85 0,0 17.51,50.47 -20.69,88.34 0,0 21.19,-11.27 29.82,-35.45 0,0 -4.85,-12.29 3.98,-24.65 z"
     id="path18" />
  <path
     class="st0"
     d="m 222.46588,83.83 -9.35,32.6 -5.7,-24.74 -30.86,16.03 c 0.03,0.24 0.05,0.48 0.06,0.73 0.16,3.44 -1.27,6.86 -4.04,9.12 l -2.16,1.77 -10.67,37.21 h 21.81 l 11.47,-40 9.41,40 h 20.87 l 22.3,-77.79 h -13.54 l -9.6,5.06 z"
     id="path19" />
  <path
     class="st0"
     d="m 231.02588,74.27 c -0.56,0 -1.02,0.37 -1.2,0.87 l -57.42,28.49 c -1.91,-2.43 -5,-3.66 -8.06,-3.23 l 2.54,5.79 c -3.03,1.31 -21.94,9.45 -29.03,10.72 -14.14,2.55 -23.15,-7.73 -22.87,-27.92 -4.65,6.84 -6.75,15.48 -3.41,23.31 4.31,10.11 14.2,16.32 29.39,10.93 6.67,-2.37 24.24,-12.1 27.33,-13.82 l 2.77,6.31 c 2.69,-2.2 3.85,-5.85 2.81,-9.25 l 56.8,-29.73 c 0.11,0.03 0.21,0.07 0.33,0.07 0.71,0 1.28,-0.57 1.28,-1.28 0,-0.71 -0.57,-1.28 -1.28,-1.28 z"
     id="path20" />
</svg>
